<svg
    xmlns="http://www.w3.org/2000/svg"
    viewBox="0 0 453 217"
    id="vector">
    <g id="w_logo">
        <path
            id="red_shape"
            d="M 298.5 98.7 C 298.5 98.7 282.2 127.3 267.5 127.3 C 252.8 127.3 244.4 111 240.2 103.2 C 236 95.4 217.5 64.4 217.5 64.4 C 217.5 64.4 211.7 69.8 200.2 69.8 C 188.7 69.8 180.5 63.2 174.7 54.9 L 208 9.2 C 208 9.2 214.6 0 225.3 0 C 234.1 0 239.8 4.8 242.6 9.2 C 243.5 10.6 250.2 21.1 258.6 34.6 C 254.7 40.5 252.1 45 249.4 47.2 C 254.2 67.5 274.8 79 283.2 79.6 C 284.4 79.7 285.6 79.7 286.7 79.8 C 293.6 90.8 298.5 98.7 298.5 98.7 Z"
            fill="#e01a27"/>
        <path
            id="blue_shape"
            d="M 216.1 98.3 C 206.8 115.8 199.3 124.8 187.8 126 C 175.5 127.2 167.7 113.5 167.7 113.5 L 99.2 5.8 L 145.9 5.8 C 154.8 5.8 162.2 15.3 162.2 15.3 L 177.5 38.8 L 165.9 54.8 L 168.8 59 C 176.9 70.8 187.8 77 200.2 77 L 202.3 77 L 216.1 98.3 Z M 305.4 1.8 C 275.8 1.8 264.3 43.7 258.1 49 C 263.7 65.9 283 73.8 291.5 73.5 C 323.1 72.1 336.5 19 353.7 1.9 C 353.7 1.8 330.9 1.8 305.4 1.8 Z"
            fill="#253289"/>
    </g>
    <g id="walton">
        <path
            id="w"
            d="M 86.9 144.5 C 83 158.7 76 183 76 183 C 76 183 69.5 158.4 66.9 148.6 C 66.3 146.1 64.1 144.6 61.7 144.6 L 49.7 144.6 C 47.2 144.6 45.1 146.2 44.4 148.8 C 41.8 158.8 35.3 183.2 35.3 183.2 C 35.3 183.2 28.2 158.8 23.9 144.6 L 0 144.6 C 5.2 161.7 17 200.5 20.8 213.1 C 21.6 215.6 23.7 217.1 26.2 217.1 L 41 217.1 C 43.5 217.1 45.7 215.5 46.5 213 C 49.3 204.3 55.7 184.6 55.7 184.6 C 55.7 184.6 62.1 204.2 64.9 213 C 65.7 215.5 67.9 217.1 70.4 217.1 L 85.2 217.1 C 87.7 217.1 89.8 215.6 90.6 213 C 94.5 200.2 106.3 161.4 111.3 144.5 L 86.9 144.5 Z"
            fill="#253289"
			fill-rule="evenodd"/>
        <path
            id="a"
            d="M 178 217.1 L 176.7 213 C 172.9 200.3 161.1 161.6 157.2 148.7 C 156.4 146 154.3 144.5 151.8 144.5 L 123.4 144.5 C 120.8 144.5 118.7 146 117.9 148.6 C 114 161.4 102.2 200.3 98.4 213 L 97.2 217.1 L 121.7 217.1 C 121.7 217.1 122.2 215.3 122.9 213 C 124.2 208.3 126.2 201.2 126.2 201.2 L 149 201.2 C 149 201.2 151 208.2 152.3 212.9 L 153.5 217 C 153.5 217.1 178 217.1 178 217.1 Z M 144.7 186.2 L 130.4 186.2 L 137.5 160.1 L 144.7 186.2 Z"
            fill="#253289"
			fill-rule="evenodd"/>
        <path
            id="l"
            d="M 184.8 144.5 L 184.8 213.1 C 184.8 215.7 186.4 217.2 188.9 217.2 L 233.6 217.2 L 233.6 213.1 L 233.6 197 L 209.3 197 L 209.3 144.5 L 184.8 144.5 Z"
            fill="#253289"
			fill-rule="evenodd"/>
        <path
            id="t"
            d="M 220.3 144.6 L 220.3 164.8 L 241.4 164.8 L 241.4 217.2 L 265.9 217.2 L 265.9 213.1 L 265.9 164.8 L 287 164.8 L 287 144.6 L 220.3 144.6 Z"
            fill="#253289"
			fill-rule="evenodd"/>
        <path
            id="o"
            d="M 325.7 167 C 321 167 317.2 170.8 317.2 175.5 L 317.2 186.4 C 317.2 191.1 321 194.9 325.7 194.9 L 337.7 194.9 C 342.3 194.9 346.2 191.1 346.2 186.4 L 346.2 175.5 C 346.2 170.9 342.4 167 337.7 167 L 325.7 167 Z M 318.8 144.6 C 301.4 144.6 294.8 153.1 294.8 168.6 L 294.8 193.1 C 294.8 208.6 301.4 217.1 318.8 217.1 L 344.7 217.1 C 362 217.1 368.7 208.5 368.7 193.1 L 368.7 168.6 C 368.7 152.9 362 144.6 344.7 144.6 L 318.8 144.6 Z"
            fill="#253289"
            fill-rule="evenodd"/>
        <path
            id="n"
            d="M 376.6 217.1 L 376.6 148.7 C 376.6 146.1 378.3 144.5 380.8 144.5 L 397 144.5 C 399.5 144.5 402.5 146.1 404.5 148.6 C 411.8 157.6 428.3 177.9 428.3 177.9 L 428.3 144.5 L 452.8 144.5 L 452.8 213 C 452.8 215.6 451.1 217.1 448.7 217.1 L 432.6 217.1 C 430.1 217.1 427.1 215.5 425.1 213 C 417.8 204.1 401.2 183.7 401.2 183.7 L 401.2 217.1 L 376.6 217.1 Z"
            fill="#253289"
			fill-rule="evenodd"/>
    </g>
</svg>
